<svg xmlns="http://www.w3.org/2000/svg" version="1.1" xmlns:xlink="http://www.w3.org/1999/xlink" xmlns:svgjs="http://svgjs.com/svgjs" width="1418" height="562" preserveAspectRatio="none" viewBox="0 0 1418 562"><g mask="url(&quot;#SvgjsMask1132&quot;)" fill="none"><path d="M-64.33 351.96L-64.33 351.96" stroke="rgba(17, 17, 219, 1)" stroke-width="1.5"></path><path d="M-64.33 351.96L83.66 340.48" stroke="rgba(17, 17, 219, 1)" stroke-width="1.5"></path><path d="M-64.33 351.96L-75.05 543.99" stroke="rgba(17, 17, 219, 1)" stroke-width="1.5"></path><path d="M-64.33 351.96L76.02 531.29" stroke="rgba(17, 17, 219, 1)" stroke-width="1.5"></path><path d="M-64.33 351.96L201.52 356.77" stroke="rgba(17, 17, 219, 1)" stroke-width="1.5"></path><path d="M-75.05 543.99L-75.05 543.99" stroke="rgba(17, 17, 219, 1)" stroke-width="1.5"></path><path d="M-75.05 543.99L-40.37 672.65" stroke="rgba(17, 17, 219, 1)" stroke-width="1.5"></path><path d="M-75.05 543.99L76.02 531.29" stroke="rgba(17, 17, 219, 1)" stroke-width="1.5"></path><path d="M-40.37 672.65L-40.37 672.65" stroke="rgba(17, 17, 219, 1)" stroke-width="1.5"></path><path d="M-40.37 672.65L99.55 638.38" stroke="rgba(17, 17, 219, 1)" stroke-width="1.5"></path><path d="M-40.37 672.65L76.02 531.29" stroke="rgba(17, 17, 219, 1)" stroke-width="1.5"></path><path d="M-40.37 672.65L230.97 704.24" stroke="rgba(17, 17, 219, 1)" stroke-width="1.5"></path><path d="M-40.37 672.65L-64.33 351.96" stroke="rgba(17, 17, 219, 1)" stroke-width="1.5"></path><path d="M-40.37 672.65L261.49 497.48" stroke="rgba(17, 17, 219, 1)" stroke-width="1.5"></path><path d="M83.66 340.48L83.66 340.48" stroke="rgba(17, 17, 219, 1)" stroke-width="1.5"></path><path d="M83.66 340.48L201.52 356.77" stroke="rgba(17, 17, 219, 1)" stroke-width="1.5"></path><path d="M83.66 340.48L76.02 531.29" stroke="rgba(17, 17, 219, 1)" stroke-width="1.5"></path><path d="M76.02 531.29L76.02 531.29" stroke="rgba(17, 17, 219, 1)" stroke-width="1.5"></path><path d="M76.02 531.29L99.55 638.38" stroke="rgba(17, 17, 219, 1)" stroke-width="1.5"></path><path d="M76.02 531.29L261.49 497.48" stroke="rgba(17, 17, 219, 1)" stroke-width="1.5"></path><path d="M99.55 638.38L99.55 638.38" stroke="rgba(17, 17, 219, 1)" stroke-width="1.5"></path><path d="M201.52 356.77L201.52 356.77" stroke="rgba(17, 17, 219, 1)" stroke-width="1.5"></path><path d="M201.52 356.77L339.51 339.11" stroke="rgba(17, 17, 219, 1)" stroke-width="1.5"></path><path d="M201.52 356.77L261.49 497.48" stroke="rgba(17, 17, 219, 1)" stroke-width="1.5"></path><path d="M201.52 356.77L76.02 531.29" stroke="rgba(17, 17, 219, 1)" stroke-width="1.5"></path><path d="M201.52 356.77L376.06 541.84" stroke="rgba(17, 17, 219, 1)" stroke-width="1.5"></path><path d="M261.49 497.48L261.49 497.48" stroke="rgba(17, 17, 219, 1)" stroke-width="1.5"></path><path d="M261.49 497.48L376.06 541.84" stroke="rgba(17, 17, 219, 1)" stroke-width="1.5"></path><path d="M261.49 497.48L339.51 339.11" stroke="rgba(17, 17, 219, 1)" stroke-width="1.5"></path><path d="M230.97 704.24L230.97 704.24" stroke="rgba(17, 17, 219, 1)" stroke-width="1.5"></path><path d="M230.97 704.24L99.55 638.38" stroke="rgba(17, 17, 219, 1)" stroke-width="1.5"></path><path d="M230.97 704.24L375.86 654.93" stroke="rgba(17, 17, 219, 1)" stroke-width="1.5"></path><path d="M339.51 339.11L339.51 339.11" stroke="rgba(17, 17, 219, 1)" stroke-width="1.5"></path><path d="M339.51 339.11L534.41 383.93" stroke="rgba(17, 17, 219, 1)" stroke-width="1.5"></path><path d="M339.51 339.11L376.06 541.84" stroke="rgba(17, 17, 219, 1)" stroke-width="1.5"></path><path d="M376.06 541.84L376.06 541.84" stroke="rgba(17, 17, 219, 1)" stroke-width="1.5"></path><path d="M376.06 541.84L375.86 654.93" stroke="rgba(17, 17, 219, 1)" stroke-width="1.5"></path><path d="M376.06 541.84L527.83 491.62" stroke="rgba(17, 17, 219, 1)" stroke-width="1.5"></path><path d="M375.86 654.93L375.86 654.93" stroke="rgba(17, 17, 219, 1)" stroke-width="1.5"></path><path d="M534.41 383.93L534.41 383.93" stroke="rgba(17, 17, 219, 1)" stroke-width="1.5"></path><path d="M534.41 383.93L527.83 491.62" stroke="rgba(17, 17, 219, 1)" stroke-width="1.5"></path><path d="M534.41 383.93L685.76 398.31" stroke="rgba(17, 17, 219, 1)" stroke-width="1.5"></path><path d="M534.41 383.93L648.98 550.76" stroke="rgba(17, 17, 219, 1)" stroke-width="1.5"></path><path d="M534.41 383.93L376.06 541.84" stroke="rgba(17, 17, 219, 1)" stroke-width="1.5"></path><path d="M527.83 491.62L527.83 491.62" stroke="rgba(17, 17, 219, 1)" stroke-width="1.5"></path><path d="M527.83 491.62L648.98 550.76" stroke="rgba(17, 17, 219, 1)" stroke-width="1.5"></path><path d="M527.83 491.62L555.18 661.99" stroke="rgba(17, 17, 219, 1)" stroke-width="1.5"></path><path d="M527.83 491.62L685.76 398.31" stroke="rgba(17, 17, 219, 1)" stroke-width="1.5"></path><path d="M527.83 491.62L375.86 654.93" stroke="rgba(17, 17, 219, 1)" stroke-width="1.5"></path><path d="M555.18 661.99L555.18 661.99" stroke="rgba(17, 17, 219, 1)" stroke-width="1.5"></path><path d="M555.18 661.99L648.98 550.76" stroke="rgba(17, 17, 219, 1)" stroke-width="1.5"></path><path d="M555.18 661.99L702.73 680.29" stroke="rgba(17, 17, 219, 1)" stroke-width="1.5"></path><path d="M555.18 661.99L375.86 654.93" stroke="rgba(17, 17, 219, 1)" stroke-width="1.5"></path><path d="M555.18 661.99L376.06 541.84" stroke="rgba(17, 17, 219, 1)" stroke-width="1.5"></path><path d="M555.18 661.99L794.97 649.37" stroke="rgba(17, 17, 219, 1)" stroke-width="1.5"></path><path d="M685.76 398.31L685.76 398.31" stroke="rgba(17, 17, 219, 1)" stroke-width="1.5"></path><path d="M685.76 398.31L815.99 377.15" stroke="rgba(17, 17, 219, 1)" stroke-width="1.5"></path><path d="M685.76 398.31L648.98 550.76" stroke="rgba(17, 17, 219, 1)" stroke-width="1.5"></path><path d="M648.98 550.76L648.98 550.76" stroke="rgba(17, 17, 219, 1)" stroke-width="1.5"></path><path d="M648.98 550.76L702.73 680.29" stroke="rgba(17, 17, 219, 1)" stroke-width="1.5"></path><path d="M702.73 680.29L702.73 680.29" stroke="rgba(17, 17, 219, 1)" stroke-width="1.5"></path><path d="M702.73 680.29L794.97 649.37" stroke="rgba(17, 17, 219, 1)" stroke-width="1.5"></path><path d="M844.18 247.43L844.18 247.43" stroke="rgba(17, 17, 219, 1)" stroke-width="1.5"></path><path d="M844.18 247.43L948.3 212.81" stroke="rgba(17, 17, 219, 1)" stroke-width="1.5"></path><path d="M844.18 247.43L815.99 377.15" stroke="rgba(17, 17, 219, 1)" stroke-width="1.5"></path><path d="M844.18 247.43L1009.8 351.04" stroke="rgba(17, 17, 219, 1)" stroke-width="1.5"></path><path d="M844.18 247.43L959.01 64.31" stroke="rgba(17, 17, 219, 1)" stroke-width="1.5"></path><path d="M844.18 247.43L685.76 398.31" stroke="rgba(17, 17, 219, 1)" stroke-width="1.5"></path><path d="M844.18 247.43L854.68 560.56" stroke="rgba(17, 17, 219, 1)" stroke-width="1.5"></path><path d="M815.99 377.15L815.99 377.15" stroke="rgba(17, 17, 219, 1)" stroke-width="1.5"></path><path d="M854.68 560.56L854.68 560.56" stroke="rgba(17, 17, 219, 1)" stroke-width="1.5"></path><path d="M854.68 560.56L794.97 649.37" stroke="rgba(17, 17, 219, 1)" stroke-width="1.5"></path><path d="M854.68 560.56L990.48 528.22" stroke="rgba(17, 17, 219, 1)" stroke-width="1.5"></path><path d="M854.68 560.56L815.99 377.15" stroke="rgba(17, 17, 219, 1)" stroke-width="1.5"></path><path d="M854.68 560.56L1010.54 673.96" stroke="rgba(17, 17, 219, 1)" stroke-width="1.5"></path><path d="M794.97 649.37L794.97 649.37" stroke="rgba(17, 17, 219, 1)" stroke-width="1.5"></path><path d="M794.97 649.37L648.98 550.76" stroke="rgba(17, 17, 219, 1)" stroke-width="1.5"></path><path d="M794.97 649.37L1010.54 673.96" stroke="rgba(17, 17, 219, 1)" stroke-width="1.5"></path><path d="M945.49 -63.06L945.49 -63.06" stroke="rgba(17, 17, 219, 1)" stroke-width="1.5"></path><path d="M945.49 -63.06L959.01 64.31" stroke="rgba(17, 17, 219, 1)" stroke-width="1.5"></path><path d="M945.49 -63.06L1144.21 -87.33" stroke="rgba(17, 17, 219, 1)" stroke-width="1.5"></path><path d="M945.49 -63.06L948.3 212.81" stroke="rgba(17, 17, 219, 1)" stroke-width="1.5"></path><path d="M959.01 64.31L959.01 64.31" stroke="rgba(17, 17, 219, 1)" stroke-width="1.5"></path><path d="M959.01 64.31L948.3 212.81" stroke="rgba(17, 17, 219, 1)" stroke-width="1.5"></path><path d="M959.01 64.31L1144.21 -87.33" stroke="rgba(17, 17, 219, 1)" stroke-width="1.5"></path><path d="M959.01 64.31L1009.8 351.04" stroke="rgba(17, 17, 219, 1)" stroke-width="1.5"></path><path d="M959.01 64.31L1251.73 98.62" stroke="rgba(17, 17, 219, 1)" stroke-width="1.5"></path><path d="M948.3 212.81L948.3 212.81" stroke="rgba(17, 17, 219, 1)" stroke-width="1.5"></path><path d="M948.3 212.81L1009.8 351.04" stroke="rgba(17, 17, 219, 1)" stroke-width="1.5"></path><path d="M948.3 212.81L815.99 377.15" stroke="rgba(17, 17, 219, 1)" stroke-width="1.5"></path><path d="M1009.8 351.04L1009.8 351.04" stroke="rgba(17, 17, 219, 1)" stroke-width="1.5"></path><path d="M1009.8 351.04L1157.05 374.07" stroke="rgba(17, 17, 219, 1)" stroke-width="1.5"></path><path d="M1009.8 351.04L990.48 528.22" stroke="rgba(17, 17, 219, 1)" stroke-width="1.5"></path><path d="M1009.8 351.04L815.99 377.15" stroke="rgba(17, 17, 219, 1)" stroke-width="1.5"></path><path d="M1009.8 351.04L1151.12 558.4" stroke="rgba(17, 17, 219, 1)" stroke-width="1.5"></path><path d="M990.48 528.22L990.48 528.22" stroke="rgba(17, 17, 219, 1)" stroke-width="1.5"></path><path d="M990.48 528.22L1010.54 673.96" stroke="rgba(17, 17, 219, 1)" stroke-width="1.5"></path><path d="M990.48 528.22L1151.12 558.4" stroke="rgba(17, 17, 219, 1)" stroke-width="1.5"></path><path d="M1010.54 673.96L1010.54 673.96" stroke="rgba(17, 17, 219, 1)" stroke-width="1.5"></path><path d="M1010.54 673.96L1148.21 675.88" stroke="rgba(17, 17, 219, 1)" stroke-width="1.5"></path><path d="M1010.54 673.96L1151.12 558.4" stroke="rgba(17, 17, 219, 1)" stroke-width="1.5"></path><path d="M1010.54 673.96L702.73 680.29" stroke="rgba(17, 17, 219, 1)" stroke-width="1.5"></path><path d="M1144.21 -87.33L1144.21 -87.33" stroke="rgba(17, 17, 219, 1)" stroke-width="1.5"></path><path d="M1144.21 -87.33L1277.55 -100.52" stroke="rgba(17, 17, 219, 1)" stroke-width="1.5"></path><path d="M1144.21 -87.33L1251.73 98.62" stroke="rgba(17, 17, 219, 1)" stroke-width="1.5"></path><path d="M1157.05 374.07L1157.05 374.07" stroke="rgba(17, 17, 219, 1)" stroke-width="1.5"></path><path d="M1157.05 374.07L1275.06 397.87" stroke="rgba(17, 17, 219, 1)" stroke-width="1.5"></path><path d="M1157.05 374.07L1151.12 558.4" stroke="rgba(17, 17, 219, 1)" stroke-width="1.5"></path><path d="M1157.05 374.07L1262.65 198.44" stroke="rgba(17, 17, 219, 1)" stroke-width="1.5"></path><path d="M1151.12 558.4L1151.12 558.4" stroke="rgba(17, 17, 219, 1)" stroke-width="1.5"></path><path d="M1151.12 558.4L1148.21 675.88" stroke="rgba(17, 17, 219, 1)" stroke-width="1.5"></path><path d="M1148.21 675.88L1148.21 675.88" stroke="rgba(17, 17, 219, 1)" stroke-width="1.5"></path><path d="M1148.21 675.88L990.48 528.22" stroke="rgba(17, 17, 219, 1)" stroke-width="1.5"></path><path d="M1148.21 675.88L1403.06 706.31" stroke="rgba(17, 17, 219, 1)" stroke-width="1.5"></path><path d="M1277.55 -100.52L1277.55 -100.52" stroke="rgba(17, 17, 219, 1)" stroke-width="1.5"></path><path d="M1277.55 -100.52L1454.89 -94.22" stroke="rgba(17, 17, 219, 1)" stroke-width="1.5"></path><path d="M1277.55 -100.52L1251.73 98.62" stroke="rgba(17, 17, 219, 1)" stroke-width="1.5"></path><path d="M1277.55 -100.52L1430.94 98.8" stroke="rgba(17, 17, 219, 1)" stroke-width="1.5"></path><path d="M1251.73 98.62L1251.73 98.62" stroke="rgba(17, 17, 219, 1)" stroke-width="1.5"></path><path d="M1251.73 98.62L1262.65 198.44" stroke="rgba(17, 17, 219, 1)" stroke-width="1.5"></path><path d="M1251.73 98.62L1430.94 98.8" stroke="rgba(17, 17, 219, 1)" stroke-width="1.5"></path><path d="M1251.73 98.62L1432.08 212.4" stroke="rgba(17, 17, 219, 1)" stroke-width="1.5"></path><path d="M1262.65 198.44L1262.65 198.44" stroke="rgba(17, 17, 219, 1)" stroke-width="1.5"></path><path d="M1262.65 198.44L1432.08 212.4" stroke="rgba(17, 17, 219, 1)" stroke-width="1.5"></path><path d="M1262.65 198.44L1430.94 98.8" stroke="rgba(17, 17, 219, 1)" stroke-width="1.5"></path><path d="M1275.06 397.87L1275.06 397.87" stroke="rgba(17, 17, 219, 1)" stroke-width="1.5"></path><path d="M1275.06 397.87L1437.14 399.77" stroke="rgba(17, 17, 219, 1)" stroke-width="1.5"></path><path d="M1275.06 397.87L1440.28 487.56" stroke="rgba(17, 17, 219, 1)" stroke-width="1.5"></path><path d="M1275.06 397.87L1262.65 198.44" stroke="rgba(17, 17, 219, 1)" stroke-width="1.5"></path><path d="M1275.06 397.87L1151.12 558.4" stroke="rgba(17, 17, 219, 1)" stroke-width="1.5"></path><path d="M1454.89 -94.22L1454.89 -94.22" stroke="rgba(17, 17, 219, 1)" stroke-width="1.5"></path><path d="M1454.89 -94.22L1545.92 -111.58" stroke="rgba(17, 17, 219, 1)" stroke-width="1.5"></path><path d="M1454.89 -94.22L1430.94 98.8" stroke="rgba(17, 17, 219, 1)" stroke-width="1.5"></path><path d="M1430.94 98.8L1430.94 98.8" stroke="rgba(17, 17, 219, 1)" stroke-width="1.5"></path><path d="M1430.94 98.8L1432.08 212.4" stroke="rgba(17, 17, 219, 1)" stroke-width="1.5"></path><path d="M1430.94 98.8L1598.5 85.98" stroke="rgba(17, 17, 219, 1)" stroke-width="1.5"></path><path d="M1432.08 212.4L1432.08 212.4" stroke="rgba(17, 17, 219, 1)" stroke-width="1.5"></path><path d="M1437.14 399.77L1437.14 399.77" stroke="rgba(17, 17, 219, 1)" stroke-width="1.5"></path><path d="M1437.14 399.77L1440.28 487.56" stroke="rgba(17, 17, 219, 1)" stroke-width="1.5"></path><path d="M1437.14 399.77L1564.28 402.11" stroke="rgba(17, 17, 219, 1)" stroke-width="1.5"></path><path d="M1437.14 399.77L1432.08 212.4" stroke="rgba(17, 17, 219, 1)" stroke-width="1.5"></path><path d="M1437.14 399.77L1557.8 252.28" stroke="rgba(17, 17, 219, 1)" stroke-width="1.5"></path><path d="M1437.14 399.77L1575.22 531.76" stroke="rgba(17, 17, 219, 1)" stroke-width="1.5"></path><path d="M1440.28 487.56L1440.28 487.56" stroke="rgba(17, 17, 219, 1)" stroke-width="1.5"></path><path d="M1440.28 487.56L1575.22 531.76" stroke="rgba(17, 17, 219, 1)" stroke-width="1.5"></path><path d="M1440.28 487.56L1564.28 402.11" stroke="rgba(17, 17, 219, 1)" stroke-width="1.5"></path><path d="M1403.06 706.31L1403.06 706.31" stroke="rgba(17, 17, 219, 1)" stroke-width="1.5"></path><path d="M1403.06 706.31L1567.01 658.86" stroke="rgba(17, 17, 219, 1)" stroke-width="1.5"></path><path d="M1403.06 706.31L1440.28 487.56" stroke="rgba(17, 17, 219, 1)" stroke-width="1.5"></path><path d="M1403.06 706.31L1575.22 531.76" stroke="rgba(17, 17, 219, 1)" stroke-width="1.5"></path><path d="M1545.92 -111.58L1545.92 -111.58" stroke="rgba(17, 17, 219, 1)" stroke-width="1.5"></path><path d="M1545.92 -111.58L1598.5 85.98" stroke="rgba(17, 17, 219, 1)" stroke-width="1.5"></path><path d="M1545.92 -111.58L1430.94 98.8" stroke="rgba(17, 17, 219, 1)" stroke-width="1.5"></path><path d="M1545.92 -111.58L1277.55 -100.52" stroke="rgba(17, 17, 219, 1)" stroke-width="1.5"></path><path d="M1598.5 85.98L1598.5 85.98" stroke="rgba(17, 17, 219, 1)" stroke-width="1.5"></path><path d="M1598.5 85.98L1557.8 252.28" stroke="rgba(17, 17, 219, 1)" stroke-width="1.5"></path><path d="M1557.8 252.28L1557.8 252.28" stroke="rgba(17, 17, 219, 1)" stroke-width="1.5"></path><path d="M1557.8 252.28L1432.08 212.4" stroke="rgba(17, 17, 219, 1)" stroke-width="1.5"></path><path d="M1557.8 252.28L1564.28 402.11" stroke="rgba(17, 17, 219, 1)" stroke-width="1.5"></path><path d="M1564.28 402.11L1564.28 402.11" stroke="rgba(17, 17, 219, 1)" stroke-width="1.5"></path><path d="M1564.28 402.11L1575.22 531.76" stroke="rgba(17, 17, 219, 1)" stroke-width="1.5"></path><path d="M1564.28 402.11L1432.08 212.4" stroke="rgba(17, 17, 219, 1)" stroke-width="1.5"></path><path d="M1575.22 531.76L1575.22 531.76" stroke="rgba(17, 17, 219, 1)" stroke-width="1.5"></path><path d="M1575.22 531.76L1567.01 658.86" stroke="rgba(17, 17, 219, 1)" stroke-width="1.5"></path><path d="M1575.22 531.76L1557.8 252.28" stroke="rgba(17, 17, 219, 1)" stroke-width="1.5"></path><path d="M1567.01 658.86L1567.01 658.86" stroke="rgba(17, 17, 219, 1)" stroke-width="1.5"></path><path d="M1567.01 658.86L1440.28 487.56" stroke="rgba(17, 17, 219, 1)" stroke-width="1.5"></path><circle r="5" cx="-64.33" cy="351.96" fill="rgba(17, 17, 219, 1)"></circle><circle r="5" cx="-75.05" cy="543.99" fill="rgba(17, 17, 219, 1)"></circle><circle r="5" cx="-40.37" cy="672.65" fill="rgba(17, 17, 219, 1)"></circle><circle r="5" cx="83.66" cy="340.48" fill="rgba(17, 17, 219, 1)"></circle><circle r="5" cx="76.02" cy="531.29" fill="rgba(17, 17, 219, 1)"></circle><circle r="5" cx="99.55" cy="638.38" fill="rgba(17, 17, 219, 1)"></circle><circle r="5" cx="201.52" cy="356.77" fill="rgba(17, 17, 219, 1)"></circle><circle r="5" cx="261.49" cy="497.48" fill="rgba(17, 17, 219, 1)"></circle><circle r="5" cx="230.97" cy="704.24" fill="rgba(17, 17, 219, 1)"></circle><circle r="5" cx="339.51" cy="339.11" fill="rgba(17, 17, 219, 1)"></circle><circle r="5" cx="376.06" cy="541.84" fill="rgba(17, 17, 219, 1)"></circle><circle r="5" cx="375.86" cy="654.93" fill="rgba(17, 17, 219, 1)"></circle><circle r="5" cx="534.41" cy="383.93" fill="rgba(17, 17, 219, 1)"></circle><circle r="5" cx="527.83" cy="491.62" fill="rgba(17, 17, 219, 1)"></circle><circle r="5" cx="555.18" cy="661.99" fill="rgba(17, 17, 219, 1)"></circle><circle r="5" cx="685.76" cy="398.31" fill="rgba(17, 17, 219, 1)"></circle><circle r="5" cx="648.98" cy="550.76" fill="rgba(17, 17, 219, 1)"></circle><circle r="5" cx="702.73" cy="680.29" fill="rgba(17, 17, 219, 1)"></circle><circle r="5" cx="844.18" cy="247.43" fill="rgba(17, 17, 219, 1)"></circle><circle r="5" cx="815.99" cy="377.15" fill="rgba(17, 17, 219, 1)"></circle><circle r="5" cx="854.68" cy="560.56" fill="rgba(17, 17, 219, 1)"></circle><circle r="5" cx="794.97" cy="649.37" fill="rgba(17, 17, 219, 1)"></circle><circle r="5" cx="945.49" cy="-63.06" fill="rgba(17, 17, 219, 1)"></circle><circle r="5" cx="959.01" cy="64.31" fill="rgba(17, 17, 219, 1)"></circle><circle r="5" cx="948.3" cy="212.81" fill="rgba(17, 17, 219, 1)"></circle><circle r="5" cx="1009.8" cy="351.04" fill="rgba(17, 17, 219, 1)"></circle><circle r="5" cx="990.48" cy="528.22" fill="rgba(17, 17, 219, 1)"></circle><circle r="5" cx="1010.54" cy="673.96" fill="rgba(17, 17, 219, 1)"></circle><circle r="5" cx="1144.21" cy="-87.33" fill="rgba(17, 17, 219, 1)"></circle><circle r="5" cx="1157.05" cy="374.07" fill="rgba(17, 17, 219, 1)"></circle><circle r="5" cx="1151.12" cy="558.4" fill="rgba(17, 17, 219, 1)"></circle><circle r="5" cx="1148.21" cy="675.88" fill="rgba(17, 17, 219, 1)"></circle><circle r="5" cx="1277.55" cy="-100.52" fill="rgba(17, 17, 219, 1)"></circle><circle r="5" cx="1251.73" cy="98.62" fill="rgba(17, 17, 219, 1)"></circle><circle r="5" cx="1262.65" cy="198.44" fill="rgba(17, 17, 219, 1)"></circle><circle r="5" cx="1275.06" cy="397.87" fill="rgba(17, 17, 219, 1)"></circle><circle r="5" cx="1454.89" cy="-94.22" fill="rgba(17, 17, 219, 1)"></circle><circle r="5" cx="1430.94" cy="98.8" fill="rgba(17, 17, 219, 1)"></circle><circle r="5" cx="1432.08" cy="212.4" fill="rgba(17, 17, 219, 1)"></circle><circle r="5" cx="1437.14" cy="399.77" fill="rgba(17, 17, 219, 1)"></circle><circle r="5" cx="1440.28" cy="487.56" fill="rgba(17, 17, 219, 1)"></circle><circle r="5" cx="1403.06" cy="706.31" fill="rgba(17, 17, 219, 1)"></circle><circle r="5" cx="1545.92" cy="-111.58" fill="rgba(17, 17, 219, 1)"></circle><circle r="5" cx="1598.5" cy="85.98" fill="rgba(17, 17, 219, 1)"></circle><circle r="5" cx="1557.8" cy="252.28" fill="rgba(17, 17, 219, 1)"></circle><circle r="5" cx="1564.28" cy="402.11" fill="rgba(17, 17, 219, 1)"></circle><circle r="5" cx="1575.22" cy="531.76" fill="rgba(17, 17, 219, 1)"></circle><circle r="5" cx="1567.01" cy="658.86" fill="rgba(17, 17, 219, 1)"></circle><path d="M-98.84 686.78L-98.84 686.78" stroke="hsl(228.5, 77.2%, 51.5%)" stroke-width="1.5"></path><path d="M-98.84 686.78L-73.39 553.13" stroke="hsl(228.5, 77.2%, 51.5%)" stroke-width="1.5"></path><path d="M-98.84 686.78L69.77 656.76" stroke="hsl(228.5, 77.2%, 51.5%)" stroke-width="1.5"></path><path d="M-98.84 686.78L112.23 495.21" stroke="hsl(228.5, 77.2%, 51.5%)" stroke-width="1.5"></path><path d="M-98.84 686.78L232.72 561.11" stroke="hsl(228.5, 77.2%, 51.5%)" stroke-width="1.5"></path><path d="M-98.84 686.78L388.06 709.99" stroke="hsl(228.5, 77.2%, 51.5%)" stroke-width="1.5"></path><path d="M790.54 401.48L790.54 401.48" stroke="hsl(228.5, 77.2%, 51.5%)" stroke-width="1.5"></path><path d="M790.54 401.48L700.79 521.21" stroke="hsl(228.5, 77.2%, 51.5%)" stroke-width="1.5"></path><path d="M790.54 401.48L810.03 561.39" stroke="hsl(228.5, 77.2%, 51.5%)" stroke-width="1.5"></path><path d="M790.54 401.48L952.37 347.23" stroke="hsl(228.5, 77.2%, 51.5%)" stroke-width="1.5"></path><path d="M790.54 401.48L941.21 520.78" stroke="hsl(228.5, 77.2%, 51.5%)" stroke-width="1.5"></path><path d="M790.54 401.48L831.31 682.85" stroke="hsl(228.5, 77.2%, 51.5%)" stroke-width="1.5"></path><path d="M952.37 347.23L952.37 347.23" stroke="hsl(228.5, 77.2%, 51.5%)" stroke-width="1.5"></path><path d="M952.37 347.23L941.21 520.78" stroke="hsl(228.5, 77.2%, 51.5%)" stroke-width="1.5"></path><path d="M952.37 347.23L1145.59 346.76" stroke="hsl(228.5, 77.2%, 51.5%)" stroke-width="1.5"></path><path d="M952.37 347.23L1134.47 497.67" stroke="hsl(228.5, 77.2%, 51.5%)" stroke-width="1.5"></path><path d="M952.37 347.23L1156.98 226.64" stroke="hsl(228.5, 77.2%, 51.5%)" stroke-width="1.5"></path><path d="M952.37 347.23L810.03 561.39" stroke="hsl(228.5, 77.2%, 51.5%)" stroke-width="1.5"></path><path d="M941.21 520.78L941.21 520.78" stroke="hsl(228.5, 77.2%, 51.5%)" stroke-width="1.5"></path><path d="M941.21 520.78L810.03 561.39" stroke="hsl(228.5, 77.2%, 51.5%)" stroke-width="1.5"></path><path d="M941.21 520.78L1134.47 497.67" stroke="hsl(228.5, 77.2%, 51.5%)" stroke-width="1.5"></path><path d="M941.21 520.78L831.31 682.85" stroke="hsl(228.5, 77.2%, 51.5%)" stroke-width="1.5"></path><path d="M941.21 520.78L1132.26 664.85" stroke="hsl(228.5, 77.2%, 51.5%)" stroke-width="1.5"></path><path d="M1152.63 -101.23L1152.63 -101.23" stroke="hsl(228.5, 77.2%, 51.5%)" stroke-width="1.5"></path><path d="M1152.63 -101.23L1258.44 -38.31" stroke="hsl(228.5, 77.2%, 51.5%)" stroke-width="1.5"></path><path d="M1152.63 -101.23L1134.29 41.13" stroke="hsl(228.5, 77.2%, 51.5%)" stroke-width="1.5"></path><path d="M1152.63 -101.23L1255.35 53.05" stroke="hsl(228.5, 77.2%, 51.5%)" stroke-width="1.5"></path><path d="M1152.63 -101.23L1397.29 -46.94" stroke="hsl(228.5, 77.2%, 51.5%)" stroke-width="1.5"></path><path d="M1152.63 -101.23L1156.98 226.64" stroke="hsl(228.5, 77.2%, 51.5%)" stroke-width="1.5"></path><path d="M1255.35 53.05L1255.35 53.05" stroke="hsl(228.5, 77.2%, 51.5%)" stroke-width="1.5"></path><path d="M1255.35 53.05L1258.44 -38.31" stroke="hsl(228.5, 77.2%, 51.5%)" stroke-width="1.5"></path><path d="M1255.35 53.05L1134.29 41.13" stroke="hsl(228.5, 77.2%, 51.5%)" stroke-width="1.5"></path><path d="M1286.66 507.37L1286.66 507.37" stroke="hsl(228.5, 77.2%, 51.5%)" stroke-width="1.5"></path><path d="M1286.66 507.37L1408.87 528.64" stroke="hsl(228.5, 77.2%, 51.5%)" stroke-width="1.5"></path><path d="M1286.66 507.37L1249.53 638.64" stroke="hsl(228.5, 77.2%, 51.5%)" stroke-width="1.5"></path><path d="M1286.66 507.37L1134.47 497.67" stroke="hsl(228.5, 77.2%, 51.5%)" stroke-width="1.5"></path><path d="M1286.66 507.37L1289.54 346.9" stroke="hsl(228.5, 77.2%, 51.5%)" stroke-width="1.5"></path><path d="M1286.66 507.37L1388.23 666.38" stroke="hsl(228.5, 77.2%, 51.5%)" stroke-width="1.5"></path><path d="M1286.66 507.37L1394.74 342.87" stroke="hsl(228.5, 77.2%, 51.5%)" stroke-width="1.5"></path><path d="M1249.53 638.64L1249.53 638.64" stroke="hsl(228.5, 77.2%, 51.5%)" stroke-width="1.5"></path><path d="M1249.53 638.64L1132.26 664.85" stroke="hsl(228.5, 77.2%, 51.5%)" stroke-width="1.5"></path><path d="M1249.53 638.64L1388.23 666.38" stroke="hsl(228.5, 77.2%, 51.5%)" stroke-width="1.5"></path><path d="M1249.53 638.64L1134.47 497.67" stroke="hsl(228.5, 77.2%, 51.5%)" stroke-width="1.5"></path><path d="M-73.39 553.13L-73.39 553.13" stroke="hsl(228.5, 77.2%, 51.5%)" stroke-width="1.5"></path><path d="M-73.39 553.13L69.77 656.76" stroke="hsl(228.5, 77.2%, 51.5%)" stroke-width="1.5"></path><path d="M-73.39 553.13L112.23 495.21" stroke="hsl(228.5, 77.2%, 51.5%)" stroke-width="1.5"></path><path d="M-73.39 553.13L232.72 561.11" stroke="hsl(228.5, 77.2%, 51.5%)" stroke-width="1.5"></path><path d="M-73.39 553.13L384.23 551.36" stroke="hsl(228.5, 77.2%, 51.5%)" stroke-width="1.5"></path><path d="M-73.39 553.13L388.06 709.99" stroke="hsl(228.5, 77.2%, 51.5%)" stroke-width="1.5"></path><path d="M112.23 495.21L112.23 495.21" stroke="hsl(228.5, 77.2%, 51.5%)" stroke-width="1.5"></path><path d="M112.23 495.21L232.72 561.11" stroke="hsl(228.5, 77.2%, 51.5%)" stroke-width="1.5"></path><path d="M69.77 656.76L69.77 656.76" stroke="hsl(228.5, 77.2%, 51.5%)" stroke-width="1.5"></path><path d="M69.77 656.76L112.23 495.21" stroke="hsl(228.5, 77.2%, 51.5%)" stroke-width="1.5"></path><path d="M69.77 656.76L232.72 561.11" stroke="hsl(228.5, 77.2%, 51.5%)" stroke-width="1.5"></path><path d="M69.77 656.76L388.06 709.99" stroke="hsl(228.5, 77.2%, 51.5%)" stroke-width="1.5"></path><path d="M69.77 656.76L384.23 551.36" stroke="hsl(228.5, 77.2%, 51.5%)" stroke-width="1.5"></path><path d="M232.72 561.11L232.72 561.11" stroke="hsl(228.5, 77.2%, 51.5%)" stroke-width="1.5"></path><path d="M232.72 561.11L384.23 551.36" stroke="hsl(228.5, 77.2%, 51.5%)" stroke-width="1.5"></path><path d="M232.72 561.11L388.06 709.99" stroke="hsl(228.5, 77.2%, 51.5%)" stroke-width="1.5"></path><path d="M232.72 561.11L495.96 551.55" stroke="hsl(228.5, 77.2%, 51.5%)" stroke-width="1.5"></path><path d="M384.23 551.36L384.23 551.36" stroke="hsl(228.5, 77.2%, 51.5%)" stroke-width="1.5"></path><path d="M384.23 551.36L495.96 551.55" stroke="hsl(228.5, 77.2%, 51.5%)" stroke-width="1.5"></path><path d="M384.23 551.36L388.06 709.99" stroke="hsl(228.5, 77.2%, 51.5%)" stroke-width="1.5"></path><path d="M384.23 551.36L500.51 710.15" stroke="hsl(228.5, 77.2%, 51.5%)" stroke-width="1.5"></path><path d="M388.06 709.99L388.06 709.99" stroke="hsl(228.5, 77.2%, 51.5%)" stroke-width="1.5"></path><path d="M388.06 709.99L500.51 710.15" stroke="hsl(228.5, 77.2%, 51.5%)" stroke-width="1.5"></path><path d="M388.06 709.99L495.96 551.55" stroke="hsl(228.5, 77.2%, 51.5%)" stroke-width="1.5"></path><path d="M495.96 551.55L495.96 551.55" stroke="hsl(228.5, 77.2%, 51.5%)" stroke-width="1.5"></path><path d="M495.96 551.55L500.51 710.15" stroke="hsl(228.5, 77.2%, 51.5%)" stroke-width="1.5"></path><path d="M500.51 710.15L500.51 710.15" stroke="hsl(228.5, 77.2%, 51.5%)" stroke-width="1.5"></path><path d="M500.51 710.15L667.92 690.99" stroke="hsl(228.5, 77.2%, 51.5%)" stroke-width="1.5"></path><path d="M700.79 521.21L700.79 521.21" stroke="hsl(228.5, 77.2%, 51.5%)" stroke-width="1.5"></path><path d="M700.79 521.21L810.03 561.39" stroke="hsl(228.5, 77.2%, 51.5%)" stroke-width="1.5"></path><path d="M700.79 521.21L667.92 690.99" stroke="hsl(228.5, 77.2%, 51.5%)" stroke-width="1.5"></path><path d="M700.79 521.21L495.96 551.55" stroke="hsl(228.5, 77.2%, 51.5%)" stroke-width="1.5"></path><path d="M700.79 521.21L831.31 682.85" stroke="hsl(228.5, 77.2%, 51.5%)" stroke-width="1.5"></path><path d="M667.92 690.99L667.92 690.99" stroke="hsl(228.5, 77.2%, 51.5%)" stroke-width="1.5"></path><path d="M667.92 690.99L831.31 682.85" stroke="hsl(228.5, 77.2%, 51.5%)" stroke-width="1.5"></path><path d="M667.92 690.99L810.03 561.39" stroke="hsl(228.5, 77.2%, 51.5%)" stroke-width="1.5"></path><path d="M667.92 690.99L495.96 551.55" stroke="hsl(228.5, 77.2%, 51.5%)" stroke-width="1.5"></path><path d="M810.03 561.39L810.03 561.39" stroke="hsl(228.5, 77.2%, 51.5%)" stroke-width="1.5"></path><path d="M810.03 561.39L831.31 682.85" stroke="hsl(228.5, 77.2%, 51.5%)" stroke-width="1.5"></path><path d="M831.31 682.85L831.31 682.85" stroke="hsl(228.5, 77.2%, 51.5%)" stroke-width="1.5"></path><path d="M1134.29 41.13L1134.29 41.13" stroke="hsl(228.5, 77.2%, 51.5%)" stroke-width="1.5"></path><path d="M1134.29 41.13L1258.44 -38.31" stroke="hsl(228.5, 77.2%, 51.5%)" stroke-width="1.5"></path><path d="M1134.29 41.13L1156.98 226.64" stroke="hsl(228.5, 77.2%, 51.5%)" stroke-width="1.5"></path><path d="M1156.98 226.64L1156.98 226.64" stroke="hsl(228.5, 77.2%, 51.5%)" stroke-width="1.5"></path><path d="M1156.98 226.64L1256.59 215.56" stroke="hsl(228.5, 77.2%, 51.5%)" stroke-width="1.5"></path><path d="M1156.98 226.64L1145.59 346.76" stroke="hsl(228.5, 77.2%, 51.5%)" stroke-width="1.5"></path><path d="M1156.98 226.64L1289.54 346.9" stroke="hsl(228.5, 77.2%, 51.5%)" stroke-width="1.5"></path><path d="M1156.98 226.64L1255.35 53.05" stroke="hsl(228.5, 77.2%, 51.5%)" stroke-width="1.5"></path><path d="M1145.59 346.76L1145.59 346.76" stroke="hsl(228.5, 77.2%, 51.5%)" stroke-width="1.5"></path><path d="M1145.59 346.76L1289.54 346.9" stroke="hsl(228.5, 77.2%, 51.5%)" stroke-width="1.5"></path><path d="M1145.59 346.76L1134.47 497.67" stroke="hsl(228.5, 77.2%, 51.5%)" stroke-width="1.5"></path><path d="M1145.59 346.76L1256.59 215.56" stroke="hsl(228.5, 77.2%, 51.5%)" stroke-width="1.5"></path><path d="M1134.47 497.67L1134.47 497.67" stroke="hsl(228.5, 77.2%, 51.5%)" stroke-width="1.5"></path><path d="M1134.47 497.67L1132.26 664.85" stroke="hsl(228.5, 77.2%, 51.5%)" stroke-width="1.5"></path><path d="M1132.26 664.85L1132.26 664.85" stroke="hsl(228.5, 77.2%, 51.5%)" stroke-width="1.5"></path><path d="M1258.44 -38.31L1258.44 -38.31" stroke="hsl(228.5, 77.2%, 51.5%)" stroke-width="1.5"></path><path d="M1258.44 -38.31L1397.29 -46.94" stroke="hsl(228.5, 77.2%, 51.5%)" stroke-width="1.5"></path><path d="M1258.44 -38.31L1256.59 215.56" stroke="hsl(228.5, 77.2%, 51.5%)" stroke-width="1.5"></path><path d="M1258.44 -38.31L1156.98 226.64" stroke="hsl(228.5, 77.2%, 51.5%)" stroke-width="1.5"></path><path d="M1256.59 215.56L1256.59 215.56" stroke="hsl(228.5, 77.2%, 51.5%)" stroke-width="1.5"></path><path d="M1256.59 215.56L1289.54 346.9" stroke="hsl(228.5, 77.2%, 51.5%)" stroke-width="1.5"></path><path d="M1289.54 346.9L1289.54 346.9" stroke="hsl(228.5, 77.2%, 51.5%)" stroke-width="1.5"></path><path d="M1289.54 346.9L1394.74 342.87" stroke="hsl(228.5, 77.2%, 51.5%)" stroke-width="1.5"></path><path d="M1289.54 346.9L1134.47 497.67" stroke="hsl(228.5, 77.2%, 51.5%)" stroke-width="1.5"></path><path d="M1397.29 -46.94L1397.29 -46.94" stroke="hsl(228.5, 77.2%, 51.5%)" stroke-width="1.5"></path><path d="M1394.74 342.87L1394.74 342.87" stroke="hsl(228.5, 77.2%, 51.5%)" stroke-width="1.5"></path><path d="M1394.74 342.87L1554.71 341.12" stroke="hsl(228.5, 77.2%, 51.5%)" stroke-width="1.5"></path><path d="M1394.74 342.87L1408.87 528.64" stroke="hsl(228.5, 77.2%, 51.5%)" stroke-width="1.5"></path><path d="M1394.74 342.87L1256.59 215.56" stroke="hsl(228.5, 77.2%, 51.5%)" stroke-width="1.5"></path><path d="M1408.87 528.64L1408.87 528.64" stroke="hsl(228.5, 77.2%, 51.5%)" stroke-width="1.5"></path><path d="M1408.87 528.64L1388.23 666.38" stroke="hsl(228.5, 77.2%, 51.5%)" stroke-width="1.5"></path><path d="M1388.23 666.38L1388.23 666.38" stroke="hsl(228.5, 77.2%, 51.5%)" stroke-width="1.5"></path><path d="M1597.46 -89.86L1597.46 -89.86" stroke="hsl(228.5, 77.2%, 51.5%)" stroke-width="1.5"></path><path d="M1597.46 -89.86L1544.91 78.03" stroke="hsl(228.5, 77.2%, 51.5%)" stroke-width="1.5"></path><path d="M1597.46 -89.86L1397.29 -46.94" stroke="hsl(228.5, 77.2%, 51.5%)" stroke-width="1.5"></path><path d="M1597.46 -89.86L1589.88 231.45" stroke="hsl(228.5, 77.2%, 51.5%)" stroke-width="1.5"></path><path d="M1544.91 78.03L1544.91 78.03" stroke="hsl(228.5, 77.2%, 51.5%)" stroke-width="1.5"></path><path d="M1544.91 78.03L1589.88 231.45" stroke="hsl(228.5, 77.2%, 51.5%)" stroke-width="1.5"></path><path d="M1544.91 78.03L1397.29 -46.94" stroke="hsl(228.5, 77.2%, 51.5%)" stroke-width="1.5"></path><path d="M1544.91 78.03L1554.71 341.12" stroke="hsl(228.5, 77.2%, 51.5%)" stroke-width="1.5"></path><path d="M1589.88 231.45L1589.88 231.45" stroke="hsl(228.5, 77.2%, 51.5%)" stroke-width="1.5"></path><path d="M1589.88 231.45L1554.71 341.12" stroke="hsl(228.5, 77.2%, 51.5%)" stroke-width="1.5"></path><path d="M1589.88 231.45L1394.74 342.87" stroke="hsl(228.5, 77.2%, 51.5%)" stroke-width="1.5"></path><path d="M1589.88 231.45L1289.54 346.9" stroke="hsl(228.5, 77.2%, 51.5%)" stroke-width="1.5"></path><path d="M1589.88 231.45L1561.54 557.13" stroke="hsl(228.5, 77.2%, 51.5%)" stroke-width="1.5"></path><path d="M1554.71 341.12L1554.71 341.12" stroke="hsl(228.5, 77.2%, 51.5%)" stroke-width="1.5"></path><path d="M1554.71 341.12L1561.54 557.13" stroke="hsl(228.5, 77.2%, 51.5%)" stroke-width="1.5"></path><path d="M1554.71 341.12L1408.87 528.64" stroke="hsl(228.5, 77.2%, 51.5%)" stroke-width="1.5"></path><path d="M1554.71 341.12L1289.54 346.9" stroke="hsl(228.5, 77.2%, 51.5%)" stroke-width="1.5"></path><path d="M1561.54 557.13L1561.54 557.13" stroke="hsl(228.5, 77.2%, 51.5%)" stroke-width="1.5"></path><path d="M1561.54 557.13L1610.7 669.47" stroke="hsl(228.5, 77.2%, 51.5%)" stroke-width="1.5"></path><path d="M1561.54 557.13L1408.87 528.64" stroke="hsl(228.5, 77.2%, 51.5%)" stroke-width="1.5"></path><path d="M1561.54 557.13L1388.23 666.38" stroke="hsl(228.5, 77.2%, 51.5%)" stroke-width="1.5"></path><path d="M1610.7 669.47L1610.7 669.47" stroke="hsl(228.5, 77.2%, 51.5%)" stroke-width="1.5"></path><path d="M1610.7 669.47L1388.23 666.38" stroke="hsl(228.5, 77.2%, 51.5%)" stroke-width="1.5"></path><path d="M1610.7 669.47L1408.87 528.64" stroke="hsl(228.5, 77.2%, 51.5%)" stroke-width="1.5"></path><circle r="25" cx="-98.84" cy="686.78" fill="url(#SvgjsRadialGradient1133)"></circle><circle r="25" cx="790.54" cy="401.48" fill="url(#SvgjsRadialGradient1133)"></circle><circle r="25" cx="952.37" cy="347.23" fill="url(#SvgjsRadialGradient1133)"></circle><circle r="25" cx="941.21" cy="520.78" fill="url(#SvgjsRadialGradient1133)"></circle><circle r="25" cx="1152.63" cy="-101.23" fill="url(#SvgjsRadialGradient1133)"></circle><circle r="25" cx="1255.35" cy="53.05" fill="url(#SvgjsRadialGradient1133)"></circle><circle r="25" cx="1286.66" cy="507.37" fill="url(#SvgjsRadialGradient1133)"></circle><circle r="25" cx="1249.53" cy="638.64" fill="url(#SvgjsRadialGradient1133)"></circle><circle r="5" cx="-73.39" cy="553.13" fill="#8b9ad9"></circle><circle r="5" cx="112.23" cy="495.21" fill="#8b9ad9"></circle><circle r="5" cx="69.77" cy="656.76" fill="#8b9ad9"></circle><circle r="5" cx="232.72" cy="561.11" fill="#8b9ad9"></circle><circle r="5" cx="384.23" cy="551.36" fill="#8b9ad9"></circle><circle r="5" cx="388.06" cy="709.99" fill="#8b9ad9"></circle><circle r="5" cx="495.96" cy="551.55" fill="#8b9ad9"></circle><circle r="5" cx="500.51" cy="710.15" fill="#8b9ad9"></circle><circle r="5" cx="700.79" cy="521.21" fill="#8b9ad9"></circle><circle r="5" cx="667.92" cy="690.99" fill="#8b9ad9"></circle><circle r="5" cx="810.03" cy="561.39" fill="#8b9ad9"></circle><circle r="5" cx="831.31" cy="682.85" fill="#8b9ad9"></circle><circle r="5" cx="1134.29" cy="41.13" fill="#8b9ad9"></circle><circle r="5" cx="1156.98" cy="226.64" fill="#8b9ad9"></circle><circle r="5" cx="1145.59" cy="346.76" fill="#8b9ad9"></circle><circle r="5" cx="1134.47" cy="497.67" fill="#8b9ad9"></circle><circle r="5" cx="1132.26" cy="664.85" fill="#8b9ad9"></circle><circle r="5" cx="1258.44" cy="-38.31" fill="#8b9ad9"></circle><circle r="5" cx="1256.59" cy="215.56" fill="#8b9ad9"></circle><circle r="5" cx="1289.54" cy="346.9" fill="#8b9ad9"></circle><circle r="5" cx="1397.29" cy="-46.94" fill="#8b9ad9"></circle><circle r="5" cx="1394.74" cy="342.87" fill="#8b9ad9"></circle><circle r="5" cx="1408.87" cy="528.64" fill="#8b9ad9"></circle><circle r="5" cx="1388.23" cy="666.38" fill="#8b9ad9"></circle><circle r="5" cx="1597.46" cy="-89.86" fill="#8b9ad9"></circle><circle r="5" cx="1544.91" cy="78.03" fill="#8b9ad9"></circle><circle r="5" cx="1589.88" cy="231.45" fill="#8b9ad9"></circle><circle r="5" cx="1554.71" cy="341.12" fill="#8b9ad9"></circle><circle r="5" cx="1561.54" cy="557.13" fill="#8b9ad9"></circle><circle r="5" cx="1610.7" cy="669.47" fill="#8b9ad9"></circle></g><defs><mask id="SvgjsMask1132"><rect width="1418" height="562" fill="#ffffff"></rect></mask><radialGradient id="SvgjsRadialGradient1133"><stop stop-color="#ffffff" offset="0.1"></stop><stop stop-color="#1735b3" offset="0.2"></stop><stop stop-color="rgba(23, 53, 179, 0)" offset="1"></stop></radialGradient></defs></svg>